HIERARCHY
ROOT SpineBase
{
  OFFSET 0.000000 0.000000 0.000000
  CHANNELS 6 Xposition Yposition Zposition Zrotation Xrotation Yrotation
  JOINT SpineMid
  {
    OFFSET -0.000000 31.588330 0.000000
    CHANNELS 3 Zrotation Xrotation Yrotation
    JOINT SpineShoulder
    {
      OFFSET 0.103770 23.453388 -0.905798
      CHANNELS 3 Zrotation Xrotation Yrotation
      JOINT Neck
      {
        OFFSET 0.078467 7.760782 -0.663033
        CHANNELS 3 Zrotation Xrotation Yrotation
        JOINT Head
        {
          OFFSET -4.236613 14.537750 -1.362899
          CHANNELS 3 Zrotation Xrotation Yrotation
          End Site
          {
            OFFSET 0 0 0
          }
        }
      }
      JOINT ShoulderLeft
      {
        OFFSET -16.970400 -5.477526 5.849991
        CHANNELS 3 Zrotation Xrotation Yrotation
        JOINT ElbowLeft
        {
          OFFSET -2.829955 -30.737024 5.684587
          CHANNELS 3 Zrotation Xrotation Yrotation
          JOINT WristLeft
          {
            OFFSET -3.633760 -22.675949 -3.986881
            CHANNELS 3 Zrotation Xrotation Yrotation
            JOINT HandLeft
            {
              OFFSET 0.742816 -3.033663 -0.183906
              CHANNELS 3 Zrotation Xrotation Yrotation
              JOINT HandTipLeft
              {
                OFFSET 0.096838 -7.395792 -1.045120
                CHANNELS 3 Zrotation Xrotation Yrotation
                End Site
                {
                  OFFSET 0 0 0
                }
              }
              JOINT ThumbLeft
              {
                OFFSET -2.342722 -0.938258 -2.934094
                CHANNELS 3 Zrotation Xrotation Yrotation
                End Site
                {
                  OFFSET 0 0 0
                }
              }
            }
          }
        }
      }
      JOINT ShoulderRight
      {
        OFFSET 15.124296 -2.609057 -8.167034
        CHANNELS 3 Zrotation Xrotation Yrotation
        JOINT ElbowRight
        {
          OFFSET 10.228703 -21.599316 -4.544368
          CHANNELS 3 Zrotation Xrotation Yrotation
          JOINT WristRight
          {
            OFFSET -24.337837 -3.235477 -12.493203
            CHANNELS 3 Zrotation Xrotation Yrotation
            JOINT HandRight
            {
              OFFSET -2.878397 0.106743 -1.196343
              CHANNELS 3 Zrotation Xrotation Yrotation
              JOINT HandTipRight
              {
                OFFSET -3.593893 0.528146 -1.971528
                CHANNELS 3 Zrotation Xrotation Yrotation
                End Site
                {
                  OFFSET 0 0 0
                }
              }
              JOINT ThumbRight
              {
                OFFSET 2.031829 -1.896256 -4.206229
                CHANNELS 3 Zrotation Xrotation Yrotation
                End Site
                {
                  OFFSET 0 0 0
                }
              }
            }
          }
        }
      }
    }
  }
  JOINT HipLeft
  {
    OFFSET -6.507377 0.416499 -1.522638
    CHANNELS 3 Zrotation Xrotation Yrotation
    JOINT KneeLeft
    {
      OFFSET -0.384777 -35.299112 -1.055202
      CHANNELS 3 Zrotation Xrotation Yrotation
      JOINT AnkleLeft
      {
        OFFSET 5.903290 -35.384907 9.349708
        CHANNELS 3 Zrotation Xrotation Yrotation
        JOINT FootLeft
        {
          OFFSET -4.375722 -2.371756 -15.231714
          CHANNELS 3 Zrotation Xrotation Yrotation
          End Site
          {
            OFFSET 0 0 0
          }
        }
      }
    }
  }
  JOINT HipRight
  {
    OFFSET 7.289922 1.755944 -5.771718
    CHANNELS 3 Zrotation Xrotation Yrotation
    JOINT KneeRight
    {
      OFFSET 7.560974 -35.210997 -3.109899
      CHANNELS 3 Zrotation Xrotation Yrotation
      JOINT AnkleRight
      {
        OFFSET 2.366782 -37.472718 6.117148
        CHANNELS 3 Zrotation Xrotation Yrotation
        JOINT FootRight
        {
          OFFSET -0.525501 -8.949076 -4.807419
          CHANNELS 3 Zrotation Xrotation Yrotation
          End Site
          {
            OFFSET 0 0 0
          }
        }
      }
    }
  }
}
MOTION
Frames: 10
Frame Time: 0.033333
-29.364627 76.713997 312.048871 1.022237 -4.591903 24.356611 -0.011145 0.183822 -24.257993 0.016585 0.127015 0.067075 12.068313 -5.508200 -1.521350 0.000000 0.000000 0.000000 1.737301 0.210817 0.675532 1.091307 5.283485 -1.928013 119.694940 41.006282 -49.891668 -115.000684 -25.710459 -56.501062 0.000000 0.000000 0.000000 0.000000 0.000000 0.000000 -25.915950 21.124457 20.098879 -29.890027 6.105449 2.981623 11.331950 -10.555465 4.292433 -13.379332 9.607975 22.101320 0.000000 0.000000 0.000000 0.000000 0.000000 0.000000 0.558133 1.467247 -24.327540 -3.730420 9.636812 0.709216 8.467618 -25.208749 1.379374 0.000000 0.000000 0.000000 0.963391 4.604583 -24.354358 -1.103521 0.994059 -0.108006 -19.641781 38.844533 13.408091 0.000000 0.000000 0.000000
-29.369619 76.735036 312.052830 0.979344 -4.505978 24.259523 -0.047025 0.291069 -24.166313 -0.027534 0.168981 0.057939 11.756051 -5.853916 -1.542287 0.000000 0.000000 0.000000 1.922955 0.100545 0.685763 1.177871 4.765956 -1.867813 106.833131 49.324513 -48.399587 -103.016519 -33.346610 -57.675505 0.000000 0.000000 0.000000 0.000000 0.000000 0.000000 -25.602298 20.798067 19.853730 -31.368823 6.867787 3.681605 14.837498 -11.152532 0.467182 -5.868691 5.515212 19.013688 0.000000 0.000000 0.000000 0.000000 0.000000 0.000000 0.601637 1.318542 -24.236698 -3.693576 9.520450 0.700217 8.445534 -25.277068 1.764802 0.000000 0.000000 0.000000 0.959393 4.510260 -24.258774 -1.083920 0.986448 -0.105522 -18.751670 37.442052 12.657378 0.000000 0.000000 0.000000
-29.381670 76.754921 312.061438 0.912177 -4.416565 24.180127 -0.099460 0.395561 -24.093931 -0.067006 0.192805 0.047618 11.815239 -6.340528 -1.560558 0.000000 0.000000 0.000000 2.022351 -0.106454 0.692861 1.461617 4.235774 -1.798909 -0.541108 29.894263 6.988774 -5.696228 -28.004634 -8.392238 0.000000 0.000000 0.000000 0.000000 0.000000 0.000000 -25.300633 20.545439 19.682091 -32.554868 7.387126 4.292473 15.162774 -11.208515 -0.175629 -2.596070 4.776986 15.024426 0.000000 0.000000 0.000000 0.000000 0.000000 0.000000 0.695757 1.175995 -24.167275 -3.736041 9.454075 0.697278 8.883562 -26.526941 2.234987 0.000000 0.000000 0.000000 0.977857 4.402515 -24.182539 -1.054356 0.996551 -0.100208 -18.207952 36.590461 12.187280 0.000000 0.000000 0.000000
-29.390286 76.776466 312.063327 0.834772 -4.332215 24.165422 -0.145952 0.477746 -24.086598 -0.091937 0.201327 0.038518 12.105811 -6.847105 -1.568839 0.000000 0.000000 0.000000 2.061145 -0.325451 0.696176 1.719531 3.882407 -1.736522 -13.108883 15.656972 6.398838 9.958724 -15.269226 -3.012365 0.000000 0.000000 0.000000 0.000000 0.000000 0.000000 -25.030212 20.410770 19.589011 -33.144806 7.598740 4.557493 11.529758 -10.516463 2.859292 -3.088157 8.260402 8.425007 0.000000 0.000000 0.000000 0.000000 0.000000 0.000000 0.799875 1.060511 -24.162529 -3.774819 9.373352 0.692688 10.169436 -29.986916 2.837036 0.000000 0.000000 0.000000 1.012916 4.294127 -24.171823 -0.994803 1.026319 -0.088843 -18.077848 36.316072 12.021525 0.000000 0.000000 0.000000
-29.398002 76.799328 312.065507 0.739243 -4.261215 24.213481 -0.192092 0.542398 -24.142840 -0.115164 0.203774 0.029241 12.569633 -7.288246 -1.557000 0.000000 0.000000 0.000000 2.199937 -0.356767 0.695059 1.813471 3.529600 -1.676916 -15.604763 12.196618 5.652963 12.172232 -12.407730 -2.402313 0.000000 0.000000 0.000000 0.000000 0.000000 0.000000 -24.685902 20.260970 19.441732 -33.061926 7.680635 4.416768 6.048351 -9.772562 7.514441 -3.628307 13.470962 2.202626 0.000000 0.000000 0.000000 0.000000 0.000000 0.000000 0.914538 0.994307 -24.220390 -3.733692 9.217069 0.684873 13.327132 -37.709817 4.226174 0.000000 0.000000 0.000000 1.074675 4.189339 -24.225286 -0.947750 1.017873 -0.082169 -18.411732 36.653323 12.244214 0.000000 0.000000 0.000000
-29.400390 76.826036 312.059782 0.647516 -4.206694 24.248437 -0.228237 0.567143 -24.185083 -0.123870 0.192530 0.022456 12.967702 -7.511587 -1.535306 0.000000 0.000000 0.000000 2.252066 -0.314101 0.680634 1.942371 3.331205 -1.639147 -16.758264 10.667180 5.291288 14.035573 -10.877711 -2.122026 0.000000 0.000000 0.000000 0.000000 0.000000 0.000000 -24.356144 20.243983 19.351458 -33.413916 7.774686 4.513131 3.823025 -9.527561 9.182800 -2.950376 15.738624 -1.089408 0.000000 0.000000 0.000000 0.000000 0.000000 0.000000 1.023102 0.929516 -24.264137 -3.848018 9.220361 0.680581 19.158981 -48.836957 6.951967 0.000000 0.000000 0.000000 1.138617 4.101288 -24.265426 -0.900161 0.985379 -0.077115 -19.116626 37.604612 12.778280 0.000000 0.000000 0.000000
-29.396873 76.855024 312.052635 0.545386 -4.196721 24.242570 -0.271323 0.548283 -24.186230 -0.136190 0.158258 0.016325 13.361489 -7.256249 -1.476992 0.000000 0.000000 0.000000 2.281849 -0.244771 0.666344 2.151227 3.126447 -1.605188 -18.442595 8.142645 4.591591 17.444426 -6.772671 -1.833965 0.000000 0.000000 0.000000 0.000000 0.000000 0.000000 -23.984022 20.545767 19.428202 -33.678438 7.542554 4.499489 2.565725 -9.469450 10.355915 -3.397819 16.281893 -0.088373 0.000000 0.000000 0.000000 0.000000 0.000000 0.000000 1.129846 0.886003 -24.266124 -4.101655 9.368684 0.674603 25.651388 -57.895052 10.135809 0.000000 0.000000 0.000000 1.227434 4.050345 -24.265992 -0.881066 0.943555 -0.077120 -20.171745 39.079039 13.636412 0.000000 0.000000 0.000000
-29.390589 76.884901 312.048415 0.439478 -4.218142 24.227207 -0.304680 0.512495 -24.177785 -0.137191 0.128362 0.011494 13.621308 -6.772171 -1.412435 0.000000 0.000000 0.000000 2.361124 -0.100267 0.656198 2.279704 3.016041 -1.600173 -19.302027 7.963033 4.644293 18.942330 -5.696236 -1.840670 0.000000 0.000000 0.000000 0.000000 0.000000 0.000000 -23.648907 20.575421 19.311345 -34.010361 7.773415 4.563505 3.652478 -10.014265 10.280401 -5.330458 16.400211 2.445752 0.000000 0.000000 0.000000 0.000000 0.000000 0.000000 1.242007 0.870312 -24.258549 -4.216256 9.391642 0.663264 22.297236 -54.134404 6.981311 0.000000 0.000000 0.000000 1.331967 4.026698 -24.257848 -0.887552 0.906109 -0.080783 -21.629219 40.948350 14.860794 0.000000 0.000000 0.000000
-29.385048 76.913257 312.052262 0.369577 -4.218990 24.196331 -0.252039 0.501821 -24.152215 -0.098214 0.136879 0.012527 13.601826 -6.741979 -1.400239 0.000000 0.000000 0.000000 2.361726 -0.019399 0.648393 2.322909 2.870597 -1.595698 -19.769421 8.313275 4.844560 19.267784 -7.794120 -1.808787 0.000000 0.000000 0.000000 0.000000 0.000000 0.000000 -23.540002 20.251946 19.022964 -34.219255 8.416794 4.514118 6.819820 -11.286424 9.555812 -8.438904 16.209695 6.135271 0.000000 0.000000 0.000000 0.000000 0.000000 0.000000 1.323155 0.854670 -24.233471 -4.315814 9.355251 0.645265 17.087874 -45.814275 3.104504 0.000000 0.000000 0.000000 1.718069 4.740345 -24.081798 -0.900812 0.079063 -0.272986 -23.468074 43.106748 16.438308 0.000000 0.000000 0.000000
-29.377609 76.937493 312.054105 0.335052 -4.220049 24.187095 -0.165697 0.479945 -24.145829 -0.043291 0.151325 0.017494 13.336364 -6.797287 -1.422233 0.000000 0.000000 0.000000 2.337040 0.104043 0.639991 2.259259 2.677766 -1.582625 -18.961196 10.725839 5.623066 17.652702 -11.113265 -1.944426 0.000000 0.000000 0.000000 0.000000 0.000000 0.000000 -23.568404 19.640298 18.562562 -34.542358 9.812565 4.224415 13.218170 -14.234558 9.322127 -12.321006 15.137891 11.800989 0.000000 0.000000 0.000000 0.000000 0.000000 0.000000 1.370231 0.848472 -24.227583 -4.406422 9.335016 0.631055 15.458473 -42.461280 1.854868 0.000000 0.000000 0.000000 1.813083 4.764948 -24.070483 -0.959339 -0.029649 -0.289578 -22.122802 41.400943 15.314723 0.000000 0.000000 0.000000
